<svg width="95" height="96" viewBox="0 0 95 96" fill="none" xmlns="http://www.w3.org/2000/svg">
<path d="M87.92 61.3466C84.8281 61.3466 83.2931 62.7088 81.6658 64.1511C79.9066 65.7111 78.0901 67.3244 74.4441 67.3244C70.798 67.3244 68.9816 65.7111 67.2223 64.1511C65.5972 62.7088 64.0622 61.3466 60.9681 61.3466C57.874 61.3466 56.3413 62.7088 54.7162 64.1511C52.9591 65.7111 51.1405 67.3244 47.4966 67.3244C43.8527 67.3244 42.0341 65.7111 40.2771 64.1511C38.6519 62.7088 37.117 61.3466 34.0251 61.3466C30.9332 61.3466 29.3982 62.7088 27.7731 64.1511C26.0161 65.7111 24.1974 67.3244 20.5536 67.3244C16.9097 67.3244 15.0911 65.7111 13.334 64.1511C11.7089 62.7088 10.1739 61.3466 7.08203 61.3466M7.08203 59.8622C10.7259 59.8622 12.5445 61.4755 14.3016 63.0355C15.9267 64.4777 17.4617 65.84 20.5536 65.84C23.6455 65.84 25.1804 64.4777 26.8055 63.0355C28.5626 61.4755 30.3812 59.8622 34.0251 59.8622C37.6689 59.8622 39.4876 61.4755 41.2446 63.0355C42.8698 64.4777 44.4047 65.84 47.4966 65.84C50.5885 65.84 52.1235 64.4777 53.7486 63.0355C55.5056 61.4755 57.3243 59.8622 60.9681 59.8622C64.612 59.8622 66.4306 61.4755 68.1899 63.0355C69.815 64.4777 71.35 65.84 74.4441 65.84C77.536 65.84 79.0709 64.4777 80.6982 63.0355C82.4575 61.4755 84.2739 59.8622 87.92 59.8622M15.9619 57.4911C18.3193 41.9088 31.8766 30.16 47.501 30.16C63.1364 30.16 76.6959 41.92 79.0423 57.5133M80.4937 57.2911C79.3062 49.4022 75.3479 42.1644 69.351 36.9088C63.2904 31.6 55.532 28.6777 47.501 28.6777C39.4744 28.6777 31.7183 31.5977 25.6598 36.9022C19.6629 42.1511 15.7046 49.3844 14.5105 57.2688" stroke="#014E68" stroke-width="2.5"/>
</svg>
